<?xml version="1.0" standalone="no"?>
<!DOCTYPE svg PUBLIC "-//W3C//DTD SVG 20010904//EN"
 "http://www.w3.org/TR/2001/REC-SVG-20010904/DTD/svg10.dtd">
<svg version="1.0" xmlns="http://www.w3.org/2000/svg"
 width="64.000000pt" height="64.000000pt" viewBox="0 0 64.000000 64.000000"
 preserveAspectRatio="xMidYMid meet">

<g transform="translate(0.000000,64.000000) scale(0.100000,-0.100000)"
fill="#000000" stroke="none">
<path d="M240 581 c-186 -10 -190 -16 -190 -270 0 -111 4 -189 11 -204 21 -47
47 -52 258 -52 215 0 240 6 261 61 6 14 10 106 10 205 0 189 -7 226 -48 248
-26 14 -168 19 -302 12z m153 -85 c66 -28 117 -108 117 -180 0 -40 -30 -105
-61 -133 -54 -49 -139 -66 -202 -40 -45 19 -105 89 -113 132 -16 87 23 177 93
214 45 24 120 27 166 7z"/>
<path d="M245 447 c-29 -16 -45 -35 -59 -68 -26 -65 -16 -111 36 -163 l40 -40
25 53 c28 59 83 105 138 115 19 4 35 12 35 17 0 24 -36 68 -70 88 -48 27 -95
26 -145 -2z"/>
<path d="M391 287 c-47 -24 -92 -117 -57 -117 50 0 126 69 126 114 0 19 -35
21 -69 3z"/>
</g>
</svg>
